<?xml version="1.0" encoding="UTF-8" standalone="no"?>
<!-- Created with Inkscape (http://www.inkscape.org/) -->

<svg
   xmlns:dc="http://purl.org/dc/elements/1.1/"
   xmlns:cc="http://creativecommons.org/ns#"
   xmlns:rdf="http://www.w3.org/1999/02/22-rdf-syntax-ns#"
   xmlns:svg="http://www.w3.org/2000/svg"
   xmlns="http://www.w3.org/2000/svg"
   xmlns:sodipodi="http://sodipodi.sourceforge.net/DTD/sodipodi-0.dtd"
   xmlns:inkscape="http://www.inkscape.org/namespaces/inkscape"
   id="svg4776"
   version="1.1"
   inkscape:version="0.48.5 r10040"
   width="159.22748"
   height="41.116337"
   sodipodi:docname="close.svg"
   style="enable-background:new">
  <metadata
     id="metadata4782">
    <rdf:RDF>
      <cc:Work
         rdf:about="">
        <dc:format>image/svg+xml</dc:format>
        <dc:type
           rdf:resource="http://purl.org/dc/dcmitype/StillImage" />
        <dc:title></dc:title>
      </cc:Work>
    </rdf:RDF>
  </metadata>
  <defs
     id="defs4780" />
  <sodipodi:namedview
     pagecolor="#f5f5dc"
     bordercolor="#666666"
     borderopacity="1"
     objecttolerance="10"
     gridtolerance="10"
     guidetolerance="10"
     inkscape:pageopacity="1"
     inkscape:pageshadow="2"
     inkscape:window-width="1188"
     inkscape:window-height="1052"
     id="namedview4778"
     showgrid="false"
     inkscape:zoom="1"
     inkscape:cx="-58.192505"
     inkscape:cy="-105.02252"
     inkscape:window-x="0"
     inkscape:window-y="26"
     inkscape:window-maximized="0"
     inkscape:current-layer="layer5"
     fit-margin-top="0"
     fit-margin-left="0"
     fit-margin-right="0"
     fit-margin-bottom="0" />
  <g
     inkscape:groupmode="layer"
     id="layer3"
     inkscape:label="下絵"
     transform="translate(-58.877454,-34.405401)" />
  <g
     inkscape:groupmode="layer"
     id="layer4"
     inkscape:label="白目"
     transform="translate(-58.877454,-34.405401)" />
  <g
     inkscape:groupmode="layer"
     id="layer6"
     inkscape:label="瞳"
     transform="translate(-58.877454,-34.405401)" />
  <g
     inkscape:groupmode="layer"
     id="layer5"
     inkscape:label="睫毛"
     transform="translate(-58.877454,-34.405401)">
    <path
       style="fill:#000000;fill-opacity:1;stroke:none"
       d="m 59.408226,48.677832 c 10.597738,1.589663 45.216724,-5.123423 68.266804,-10.157346 23.05009,-5.033926 61.82044,-4.1496 65.2647,-3.884657 3.44427,0.264945 5.29887,0.79483 5.29887,0.79483 0,0 -2.38405,1.326047 -7.94786,3.975483 -5.56381,2.649433 -6.62403,4.767651 -6.62403,4.767651 0,0 4.72744,0.08801 8.72724,0.364237 4.01028,0.276956 14.7383,0.995475 14.7383,0.995475 0,0 -1.14936,1.340674 -4.43127,3.572015 -3.80203,2.584972 -6.84687,3.016578 -6.84687,3.016578 0,0 0.92568,0.563005 11.39257,6.623586 3.34989,1.939664 10.85825,9.009846 10.85825,9.009846 C 173.67423,53.894434 154.44997,47.721119 134.47007,49.828875 110.71333,51.5962 97.383308,56.27613 84.576971,62.014504 71.365056,67.934611 62.231336,75.521738 62.231336,75.521738 c 0,0 2.473987,-3.529329 4.858477,-7.503483 2.384494,-3.97415 7.685134,-7.682911 7.685134,-7.682911 0,0 -4.768983,0.331182 -7.683362,2.318254 -2.635948,1.79723 -8.214131,4.216274 -8.214131,4.216274 0,0 3.246444,-5.34228 5.895877,-7.991715 2.649436,-2.649433 5.232635,-5.630048 5.232635,-5.630048 0,0 -0.06624,0.463649 -4.83522,-1.126011 -4.76898,-1.589661 -5.76252,-3.444266 -5.76252,-3.444266 z"
       id="path4786"
       inkscape:connector-curvature="0"
       sodipodi:nodetypes="csscscscscsccscscscscsc" />
    <path
       style="fill:#000000;fill-opacity:1;stroke:none"
       d="M 65.828161,45.155316 C 88.660512,44.718912 94.279503,39.49788 94.279503,39.49788 z"
       id="path6252"
       inkscape:connector-curvature="0" />
    <path
       style="fill:#ffffff;stroke:none"
       d="m 102.0864,46.554814 c 3.14149,-0.836171 3.71917,-1.451344 9.69545,-2.401664 5.97629,-0.950324 11.01066,-1.072471 11.01066,-1.072471 0,0 -3.96205,0.44775 -10.0393,1.650057 -6.07725,1.202308 -10.66681,1.824078 -10.66681,1.824078 z"
       id="path11843"
       inkscape:connector-curvature="0" />
    <path
       style="fill:#ffffff;stroke:none;enable-background:new"
       d="m 114.4614,46.000812 c 2.03893,-0.460544 2.41387,-0.799368 6.29269,-1.322782 3.87884,-0.523417 7.14632,-0.590693 7.14632,-0.590693 0,0 -2.57151,0.246611 -6.51586,0.908814 -3.94436,0.662204 -6.92315,1.004661 -6.92315,1.004661 z"
       id="path11843-6"
       inkscape:connector-curvature="0" />
  </g>
</svg>
