<?xml version="1.0" encoding="UTF-8" standalone="no"?>
<!-- Created with Inkscape (http://www.inkscape.org/) -->

<svg
   xmlns:dc="http://purl.org/dc/elements/1.1/"
   xmlns:cc="http://creativecommons.org/ns#"
   xmlns:rdf="http://www.w3.org/1999/02/22-rdf-syntax-ns#"
   xmlns:svg="http://www.w3.org/2000/svg"
   xmlns="http://www.w3.org/2000/svg"
   xmlns:sodipodi="http://sodipodi.sourceforge.net/DTD/sodipodi-0.dtd"
   xmlns:inkscape="http://www.inkscape.org/namespaces/inkscape"
   id="svg4776"
   version="1.1"
   inkscape:version="0.48.5 r10040"
   width="168.45271"
   height="40.002956"
   sodipodi:docname="close.svg"
   style="enable-background:new">
  <title
     id="title3084">close</title>
  <metadata
     id="metadata4782">
    <rdf:RDF>
      <cc:Work
         rdf:about="">
        <dc:format>image/svg+xml</dc:format>
        <dc:type
           rdf:resource="http://purl.org/dc/dcmitype/StillImage" />
        <dc:title>close</dc:title>
        <dc:date>2014-01-22</dc:date>
        <dc:creator>
          <cc:Agent>
            <dc:title>yantene</dc:title>
          </cc:Agent>
        </dc:creator>
        <dc:rights>
          <cc:Agent>
            <dc:title>yantene</dc:title>
          </cc:Agent>
        </dc:rights>
        <dc:publisher>
          <cc:Agent>
            <dc:title>yantene</dc:title>
          </cc:Agent>
        </dc:publisher>
        <dc:source>https://github.com/yantene/hibarichan</dc:source>
        <cc:license
           rdf:resource="http://creativecommons.org/licenses/by/3.0/" />
      </cc:Work>
      <cc:License
         rdf:about="http://creativecommons.org/licenses/by/3.0/">
        <cc:permits
           rdf:resource="http://creativecommons.org/ns#Reproduction" />
        <cc:permits
           rdf:resource="http://creativecommons.org/ns#Distribution" />
        <cc:requires
           rdf:resource="http://creativecommons.org/ns#Notice" />
        <cc:requires
           rdf:resource="http://creativecommons.org/ns#Attribution" />
        <cc:permits
           rdf:resource="http://creativecommons.org/ns#DerivativeWorks" />
      </cc:License>
    </rdf:RDF>
  </metadata>
  <defs
     id="defs4780" />
  <sodipodi:namedview
     pagecolor="#f5f5dc"
     bordercolor="#666666"
     borderopacity="1"
     objecttolerance="10"
     gridtolerance="10"
     guidetolerance="10"
     inkscape:pageopacity="1"
     inkscape:pageshadow="2"
     inkscape:window-width="1918"
     inkscape:window-height="1052"
     id="namedview4778"
     showgrid="false"
     inkscape:zoom="1"
     inkscape:cx="-60.060074"
     inkscape:cy="164.77363"
     inkscape:window-x="0"
     inkscape:window-y="26"
     inkscape:window-maximized="0"
     inkscape:current-layer="layer5"
     fit-margin-top="0"
     fit-margin-left="0"
     fit-margin-right="0"
     fit-margin-bottom="0" />
  <g
     inkscape:groupmode="layer"
     id="layer3"
     inkscape:label="下絵"
     transform="translate(-58.877454,-35.518782)" />
  <g
     inkscape:groupmode="layer"
     id="layer4"
     inkscape:label="白目"
     transform="translate(-58.877454,-35.518782)" />
  <g
     inkscape:groupmode="layer"
     id="layer6"
     inkscape:label="瞳"
     transform="translate(-58.877454,-35.518782)" />
  <g
     inkscape:groupmode="layer"
     id="layer5"
     inkscape:label="睫毛"
     transform="translate(-58.877454,-35.518782)">
    <path
       style="fill:#000000;fill-opacity:1;stroke:none"
       d="m 59.408226,48.677832 c 10.597738,1.589663 45.216724,-5.123423 68.266804,-10.157346 23.05009,-5.033926 69.96033,-2.295606 73.39643,-1.940113 7.68691,0.795275 9.18796,2.209043 9.18796,2.209043 8.37783,4.657748 4.46938,14.151408 -2.25018,19.375685 C 201.26509,64.147659 196.3614,68.462637 196.3614,68.462637 202.13528,50.005347 154.44997,47.721119 134.47007,49.828875 110.71333,51.5962 97.383308,56.27613 84.576971,62.014504 71.365056,67.934611 62.231336,75.521738 62.231336,75.521738 c 0,0 2.473987,-3.529329 4.858477,-7.503483 2.384494,-3.97415 7.685134,-7.682911 7.685134,-7.682911 0,0 -4.768983,0.331182 -7.683362,2.318254 -2.635948,1.79723 -8.214131,4.216274 -8.214131,4.216274 0,0 3.246444,-5.34228 5.895877,-7.991715 2.649436,-2.649433 5.232635,-5.630048 5.232635,-5.630048 0,0 -0.06624,0.463649 -4.83522,-1.126011 -4.76898,-1.589661 -5.76252,-3.444266 -5.76252,-3.444266 z"
       id="path4786"
       inkscape:connector-curvature="0"
       sodipodi:nodetypes="cssccccscscscscsc" />
    <path
       style="fill:#000000;fill-opacity:1;stroke:none"
       d="M 65.828161,45.155316 C 88.660512,44.718912 94.279503,39.49788 94.279503,39.49788 z"
       id="path6252"
       inkscape:connector-curvature="0" />
    <path
       style="fill:#ffffff;stroke:none"
       d="m 102.0864,46.554814 c 3.14149,-0.836171 3.71917,-1.451344 9.69545,-2.401664 5.97629,-0.950324 11.01066,-1.072471 11.01066,-1.072471 0,0 -3.96205,0.44775 -10.0393,1.650057 -6.07725,1.202308 -10.66681,1.824078 -10.66681,1.824078 z"
       id="path11843"
       inkscape:connector-curvature="0" />
    <path
       style="fill:#ffffff;stroke:none;enable-background:new"
       d="m 114.4614,46.000812 c 2.03893,-0.460544 2.41387,-0.799368 6.29269,-1.322782 3.87884,-0.523417 7.14632,-0.590693 7.14632,-0.590693 0,0 -2.57151,0.246611 -6.51586,0.908814 -3.94436,0.662204 -6.92315,1.004661 -6.92315,1.004661 z"
       id="path11843-6"
       inkscape:connector-curvature="0" />
    <path
       style="fill:#000000;fill-opacity:1;stroke:none"
       d="m 213.30631,41.580582 c 4.90154,7.939777 14.02386,19.752619 14.02386,19.752619 0,0 -13.20693,-12.200147 -14.56847,-16.266863 -1.36154,-4.066716 0.54461,-3.485756 0.54461,-3.485756 z"
       id="path4041"
       inkscape:connector-curvature="0" />
    <path
       style="fill:#000000;fill-opacity:1;stroke:none;enable-background:new"
       d="m 204.15583,48.665022 c 4.16016,5.504209 11.90267,13.6934 11.90267,13.6934 0,0 -11.20931,-8.457688 -12.3649,-11.276918 -1.1556,-2.819229 0.46223,-2.416482 0.46223,-2.416482 z"
       id="path4041-4"
       inkscape:connector-curvature="0" />
  </g>
</svg>
