<?xml version="1.0" encoding="UTF-8" standalone="no"?>
<!-- Created with Inkscape (http://www.inkscape.org/) -->

<svg
   xmlns:dc="http://purl.org/dc/elements/1.1/"
   xmlns:cc="http://creativecommons.org/ns#"
   xmlns:rdf="http://www.w3.org/1999/02/22-rdf-syntax-ns#"
   xmlns:svg="http://www.w3.org/2000/svg"
   xmlns="http://www.w3.org/2000/svg"
   xmlns:sodipodi="http://sodipodi.sourceforge.net/DTD/sodipodi-0.dtd"
   xmlns:inkscape="http://www.inkscape.org/namespaces/inkscape"
   id="svg4776"
   version="1.1"
   inkscape:version="0.48.5 r10040"
   width="369.64105"
   height="95.176407"
   sodipodi:docname="default.svg"
   style="enable-background:new">
  <title
     id="title3082">default</title>
  <metadata
     id="metadata4782">
    <rdf:RDF>
      <cc:Work
         rdf:about="">
        <dc:format>image/svg+xml</dc:format>
        <dc:type
           rdf:resource="http://purl.org/dc/dcmitype/StillImage" />
        <dc:title>default</dc:title>
        <cc:license
           rdf:resource="http://creativecommons.org/licenses/by/3.0/" />
        <dc:date>2014-01-23</dc:date>
        <dc:creator>
          <cc:Agent>
            <dc:title>yantene</dc:title>
          </cc:Agent>
        </dc:creator>
        <dc:rights>
          <cc:Agent>
            <dc:title>yantene</dc:title>
          </cc:Agent>
        </dc:rights>
        <dc:publisher>
          <cc:Agent>
            <dc:title>yantene</dc:title>
          </cc:Agent>
        </dc:publisher>
        <dc:source>https://github.com/yantene/hibarichan</dc:source>
      </cc:Work>
      <cc:License
         rdf:about="http://creativecommons.org/licenses/by/3.0/">
        <cc:permits
           rdf:resource="http://creativecommons.org/ns#Reproduction" />
        <cc:permits
           rdf:resource="http://creativecommons.org/ns#Distribution" />
        <cc:requires
           rdf:resource="http://creativecommons.org/ns#Notice" />
        <cc:requires
           rdf:resource="http://creativecommons.org/ns#Attribution" />
        <cc:permits
           rdf:resource="http://creativecommons.org/ns#DerivativeWorks" />
      </cc:License>
    </rdf:RDF>
  </metadata>
  <defs
     id="defs4780" />
  <sodipodi:namedview
     pagecolor="#f5f5dc"
     bordercolor="#666666"
     borderopacity="1"
     objecttolerance="10"
     gridtolerance="10"
     guidetolerance="10"
     inkscape:pageopacity="1"
     inkscape:pageshadow="2"
     inkscape:window-width="1246"
     inkscape:window-height="1052"
     id="namedview4778"
     showgrid="false"
     inkscape:zoom="1.4142136"
     inkscape:cx="-153.77236"
     inkscape:cy="67.121861"
     inkscape:window-x="0"
     inkscape:window-y="26"
     inkscape:window-maximized="0"
     inkscape:current-layer="layer5"
     fit-margin-top="0"
     fit-margin-left="0"
     fit-margin-right="0"
     fit-margin-bottom="0"
     showguides="true"
     inkscape:guide-bbox="true" />
  <g
     inkscape:groupmode="layer"
     id="layer3"
     inkscape:label="下絵"
     transform="translate(154.06311,-19.644323)" />
  <g
     inkscape:groupmode="layer"
     id="layer4"
     inkscape:label="白目"
     transform="translate(154.06311,-19.644323)" />
  <g
     inkscape:groupmode="layer"
     id="layer6"
     inkscape:label="瞳"
     transform="translate(154.06311,-19.644323)" />
  <g
     inkscape:groupmode="layer"
     id="layer5"
     inkscape:label="睫毛"
     transform="translate(154.06311,-19.644323)">
    <path
       style="fill:#ffffff;fill-opacity:1;stroke:none"
       d="m 89.572142,32.408725 c -2.248119,10.116536 -1.68609,29.787584 1.12406,43.463645 2.81015,13.676061 10.116538,32.78508 10.116538,32.78508 0,0 44.21303,9.17982 57.70175,2.43546 13.48871,-6.74436 34.28382,-41.590212 34.28382,-41.590212 0,0 13.48872,-16.673557 5.43296,-24.916661 -8.05577,-8.243104 -18.1723,-21.919166 -35.78257,-21.54448 -17.61028,0.374689 -42.71428,1.12406 -54.32957,4.121553 -11.615285,2.997493 -18.546988,5.245615 -18.546988,5.245615 z"
       id="path5296"
       inkscape:connector-curvature="0" />
    <path
       style="fill:#76a34d;fill-opacity:1;stroke:none"
       d="m 125.45622,25.826639 c -11.06357,1.670307 -22.50333,6.756013 -28.576865,16.575541 -4.906868,9.497311 -3.426338,20.59772 -2.205319,30.795059 1.869183,12.098137 6.929544,24.572272 17.089014,31.998221 5.1337,3.68408 11.66314,3.45855 17.57576,4.75244 7.82055,1.25616 17.1292,2.14099 23.55047,-3.46557 5.70068,-5.18686 9.50968,-12.110389 12.91369,-18.929299 3.55648,-7.501985 5.01526,-15.813815 4.89679,-24.0772 0.35614,-8.869655 0.9383,-18.454387 -3.50348,-26.483878 -3.80278,-5.314528 -9.23522,-9.641456 -15.40668,-11.846541 -8.56274,-2.78064 -17.77763,-1.33542 -26.33338,0.681227 z"
       id="path5359"
       inkscape:connector-curvature="0" />
    <path
       style="fill:#395026;fill-opacity:1;stroke:none"
       d="m 133.97809,46.928578 c -24.9565,0.098 -30.41371,44.697926 -6.85056,51.425035 22.73912,7.611557 38.61205,-32.056272 20.61416,-47.331787 -3.69674,-3.412734 -7.47326,-4.053626 -13.7636,-4.093248 z"
       id="path6175"
       inkscape:connector-curvature="0"
       sodipodi:nodetypes="cccc" />
    <path
       style="fill:#ffffff;fill-opacity:1;stroke:none"
       d="m 110.11711,39.32446 c -11.444061,8.070727 -3.65358,30.289563 10.76964,28.489405 13.6635,-4.752374 8.81984,-27.260983 -4.40706,-29.042626 -1.95871,-0.355567 -4.02105,-0.706864 -6.36258,0.553221 z"
       id="path6202"
       inkscape:connector-curvature="0"
       sodipodi:nodetypes="cccc" />
    <path
       transform="matrix(0.28906488,0,0,0.28906488,15.073355,-26.658307)"
       sodipodi:type="arc"
       style="fill:#ffffff;fill-opacity:1;stroke:none"
       id="path6227"
       sodipodi:cx="467.44232"
       sodipodi:cy="414.91571"
       sodipodi:rx="25.205223"
       sodipodi:ry="25.434362"
       d="m 492.64754,414.91571 c 0,14.04701 -11.28476,25.43436 -25.20522,25.43436 -13.92046,0 -25.20522,-11.38735 -25.20522,-25.43436 0,-14.04701 11.28476,-25.43436 25.20522,-25.43436 13.92046,0 25.20522,11.38735 25.20522,25.43436 z" />
    <path
       sodipodi:type="arc"
       style="fill:#061c05;fill-opacity:1;stroke:none"
       id="path6250"
       sodipodi:cx="411.99084"
       sodipodi:cy="355.56885"
       sodipodi:rx="34.370762"
       sodipodi:ry="34.370762"
       d="m 446.36161,355.56885 c 0,18.98245 -15.38832,34.37076 -34.37077,34.37076 -18.98244,0 -34.37076,-15.38831 -34.37076,-34.37076 0,-18.98245 15.38832,-34.37076 34.37076,-34.37076 18.98245,0 34.37077,15.38831 34.37077,34.37076 z"
       transform="matrix(0.28906488,0,0,0.34687786,14.675937,-49.400579)" />
    <path
       style="fill:#000000;fill-opacity:1;stroke:none"
       d="m 57.817236,28.82428 c 10.597738,1.589663 41.820274,-3.959209 68.620354,-8.743132 35.16914,-1.281063 48.15625,-1.035177 69.87965,20.69951 0,0 12.10743,18.063811 10.04362,19.847737 -5.67641,4.906603 -16.60178,13.766157 -16.60178,13.766157 0,0 9.27302,-15.896609 2.64944,-27.554121 C 185.72186,35.071932 162.99979,25.909904 139.41982,26.439789 115.83985,26.969677 95.969095,32.533491 84.046641,40.746738 72.124182,48.959979 64.17588,60.087603 64.17588,60.087603 c 0,0 1.059773,-7.418416 3.444263,-11.39257 2.384494,-3.97415 5.563814,-8.213241 5.563814,-8.213241 0,0 -4.768983,0.331182 -7.683362,2.318254 -2.635948,1.79723 -7.153471,5.100157 -7.153471,5.100157 0,0 2.185784,-6.226163 4.835217,-8.875598 2.649436,-2.649433 5.232635,-5.630048 5.232635,-5.630048 0,0 -0.06624,0.463649 -4.83522,-1.126011 -4.76898,-1.589661 -5.76252,-3.444266 -5.76252,-3.444266 z"
       id="path4786"
       inkscape:connector-curvature="0"
       sodipodi:nodetypes="cccscssscscscscsc" />
    <path
       style="fill:#000000;fill-opacity:1;stroke:none"
       d="m 100.77918,108.64634 c 12.13499,1.69231 24.27204,3.70867 36.53626,4.04432 8.52925,-0.33154 17.02054,-1.32362 25.52758,-1.76135 -3.8467,2.89852 -10.99689,3.09734 -15.32153,3.66904 -8.12067,0.33931 -14.44496,0.37318 -22.54457,-0.49503 -8.17443,-1.29104 -16.15741,-3.53909 -24.19774,-5.45698 z"
       id="path6222"
       inkscape:connector-curvature="0"
       sodipodi:nodetypes="cccccc" />
    <path
       style="fill:#000000;fill-opacity:1;stroke:none"
       d="M 64.237171,25.301764 C 87.069522,24.86536 92.688513,19.644328 92.688513,19.644328 z"
       id="path6252"
       inkscape:connector-curvature="0" />
    <path
       style="fill:none;stroke:none"
       d="m 107.4768,78.477177 c 15.68225,0.998823 31.45827,-0.491977 47.09534,1.382389 3.8478,1.222343 6.54345,5.072895 6.34612,9.107264 -0.13025,5.787076 -3.47906,11.23499 -8.18689,14.47909 -5.2664,4.81633 -12.83741,5.46314 -19.6294,4.86004 -4.19313,-0.44192 -8.42363,-0.71555 -12.5717,-1.48137 -8.79555,-2.07736 -15.34651,-9.651749 -18.22525,-17.952623 -0.83221,-2.561042 -1.59943,-5.23876 -1.5561,-7.946278 0.57759,-2.839773 4.06672,-2.322919 6.25166,-2.417441 l 0.47622,-0.03109 0,0 z"
       id="path6254"
       inkscape:connector-curvature="0" />
    <path
       style="fill:#000000;fill-opacity:1;stroke:none"
       d="m 205.03841,56.371463 c 0.13606,0.700873 6.56168,11.973405 8.1256,13.948591 1.56393,1.975188 2.41394,2.744928 2.41394,2.744928 0,0 -4.01182,-1.465461 -10.26754,-12.233418 -6.25573,-10.767959 -0.272,-4.460101 -0.272,-4.460101 z"
       id="path3420"
       inkscape:connector-curvature="0"
       sodipodi:nodetypes="cscsc" />
    <path
       style="fill:#000000;fill-opacity:1;stroke:none;enable-background:new"
       d="m 198.57348,55.280026 c -0.0149,0.713802 3.88686,13.08856 4.99869,15.349324 1.11183,2.260768 1.78024,3.192566 1.78024,3.192566 0,0 -3.61217,-2.279156 -7.45437,-14.124847 -3.84221,-11.845696 0.67544,-4.417043 0.67544,-4.417043 z"
       id="path3420-4"
       inkscape:connector-curvature="0"
       sodipodi:nodetypes="cscsc" />
    <path
       style="fill:#ffffff;fill-opacity:1;stroke:none;enable-background:new"
       d="m -28.057299,32.408723 c 2.24812,10.11653 1.68609,29.78758 -1.12406,43.46364 -2.81015,13.67606 -10.11654,32.785087 -10.11654,32.785087 0,0 -44.21303,9.17982 -57.70175,2.43546 -13.488711,-6.74436 -34.283821,-41.590217 -34.283821,-41.590217 0,0 -13.48872,-16.67356 -5.43296,-24.91666 8.05577,-8.24311 18.1723,-21.91917 35.78257,-21.54448 17.610281,0.37469 42.714281,1.12406 54.329571,4.12155 11.61529,2.99749 18.54699,5.24562 18.54699,5.24562 z"
       id="path5296-6"
       inkscape:connector-curvature="0" />
    <path
       style="fill:#76a34d;fill-opacity:1;stroke:none;enable-background:new"
       d="m -72.941379,27.326633 c 11.06357,1.67031 22.50333,6.75601 28.57687,16.57554 4.90686,9.49731 3.42633,20.59772 2.20531,30.79506 -1.86918,12.09814 -6.92954,24.57227 -17.08901,31.998227 -5.1337,3.68408 -11.66314,3.45855 -17.57576,4.75244 -7.82055,1.25616 -17.1292,2.14099 -23.550471,-3.46557 -5.70068,-5.18686 -9.50968,-12.110397 -12.91369,-18.929307 -3.55648,-7.50198 -5.01526,-15.81381 -4.89679,-24.0772 -0.35614,-8.86965 -0.9383,-18.45439 3.50348,-26.48388 3.80278,-5.31452 9.23522,-9.64145 15.406681,-11.84654 8.56274,-2.78064 17.77763,-1.33542 26.33338,0.68123 z"
       id="path5359-7"
       inkscape:connector-curvature="0" />
    <path
       style="fill:#395026;fill-opacity:1;stroke:none;enable-background:new"
       d="m -78.433757,46.307253 c -24.956503,0.098 -30.413713,44.69792 -6.85056,51.42503 22.73912,7.611567 38.612051,-32.05627 20.61416,-47.33178 -3.69674,-3.41274 -7.47326,-4.05363 -13.7636,-4.09325 z"
       id="path6175-1"
       inkscape:connector-curvature="0"
       sodipodi:nodetypes="cccc" />
    <path
       style="fill:#ffffff;fill-opacity:1;stroke:none;enable-background:new"
       d="m -102.29474,38.703133 c -11.44406,8.07073 -3.65358,30.28956 10.769643,28.48941 13.6635,-4.75238 8.81984,-27.26099 -4.40706,-29.04263 -1.95871,-0.35557 -4.02105,-0.70686 -6.362583,0.55322 z"
       id="path6202-3"
       inkscape:connector-curvature="0"
       sodipodi:nodetypes="cccc" />
    <path
       transform="matrix(0.28906488,0,0,0.28906488,-197.3385,-27.279633)"
       sodipodi:type="arc"
       style="fill:#ffffff;fill-opacity:1;stroke:none;enable-background:new"
       id="path6227-6"
       sodipodi:cx="467.44232"
       sodipodi:cy="414.91571"
       sodipodi:rx="25.205223"
       sodipodi:ry="25.434362"
       d="m 492.64754,414.91571 c 0,14.04701 -11.28476,25.43436 -25.20522,25.43436 -13.92046,0 -25.20522,-11.38735 -25.20522,-25.43436 0,-14.04701 11.28476,-25.43436 25.20522,-25.43436 13.92046,0 25.20522,11.38735 25.20522,25.43436 z" />
    <path
       sodipodi:type="arc"
       style="fill:#061c05;fill-opacity:1;stroke:none;enable-background:new"
       id="path6250-1"
       sodipodi:cx="411.99084"
       sodipodi:cy="355.56885"
       sodipodi:rx="34.370762"
       sodipodi:ry="34.370762"
       d="m 446.36161,355.56885 c 0,18.98245 -15.38832,34.37076 -34.37077,34.37076 -18.98244,0 -34.37076,-15.38831 -34.37076,-34.37076 0,-18.98245 15.38832,-34.37076 34.37076,-34.37076 18.98245,0 34.37077,15.38831 34.37077,34.37076 z"
       transform="matrix(0.28906488,0,0,0.34687786,-197.73591,-50.021905)" />
    <path
       style="fill:#000000;fill-opacity:1;stroke:none;enable-background:new"
       d="m 3.6976005,28.824273 c -10.59773,1.58966 -41.8202695,-3.95921 -68.6203495,-8.74313 -35.169141,-1.28106 -48.156251,-1.03518 -69.879651,20.69951 0,0 -12.10743,18.06381 -10.04362,19.84774 5.67641,4.9066 16.60178,13.76615 16.60178,13.76615 0,0 -9.27302,-15.89661 -2.64944,-27.55412 6.68666,-11.7685 29.40873,-20.93053 52.988701,-20.40064 23.57997,0.52989 43.45073,6.0937 55.37318,14.30695 11.92246,8.21324 19.8707595,19.34086 19.8707595,19.34086 0,0 -1.05977,-7.41841 -3.44426,-11.39257 -2.3845,-3.97415 -5.5638195,-8.21324 -5.5638195,-8.21324 0,0 4.7689895,0.33118 7.6833695,2.31826 2.63594,1.79723 7.15347,5.10015 7.15347,5.10015 0,0 -2.18579,-6.22616 -4.83522,-8.87559 -2.64944,-2.64944 -5.23264,-5.63005 -5.23264,-5.63005 0,0 0.0662,0.46365 4.83522,-1.12601 4.76898,-1.58966 5.76252,-3.44427 5.76252,-3.44427 z"
       id="path4786-8"
       inkscape:connector-curvature="0"
       sodipodi:nodetypes="cccscssscscscscsc" />
    <path
       style="fill:#000000;fill-opacity:1;stroke:none;enable-background:new"
       d="m -39.264339,108.64634 c -12.13499,1.69231 -24.27204,3.70867 -36.53626,4.04432 -8.52925,-0.33154 -17.02054,-1.32362 -25.527581,-1.76135 3.846701,2.89852 10.996891,3.09734 15.321531,3.66904 8.12067,0.33931 14.44496,0.37318 22.54457,-0.49503 8.17443,-1.29104 16.15741,-3.53909 24.19774,-5.45698 z"
       id="path6222-4"
       inkscape:connector-curvature="0"
       sodipodi:nodetypes="cccccc" />
    <path
       style="fill:#000000;fill-opacity:1;stroke:none;enable-background:new"
       d="m -2.7223295,25.301753 c -22.8323495,-0.4364 -28.4513395,-5.65743 -28.4513395,-5.65743 z"
       id="path6252-2"
       inkscape:connector-curvature="0" />
    <path
       style="fill:none;stroke:none;enable-background:new"
       d="m -54.961959,79.977173 c -15.68225,0.99882 -31.45827,-0.49198 -47.095341,1.38239 -3.8478,1.22234 -6.54345,5.07289 -6.34612,9.10726 0.13025,5.78708 3.47906,11.234997 8.18689,14.479097 5.266401,4.81633 12.837411,5.46314 19.629401,4.86004 4.19313,-0.44192 8.42363,-0.71555 12.5717,-1.48137 8.79555,-2.07736 15.34651,-9.651757 18.22525,-17.952627 0.83221,-2.56104 1.59943,-5.23876 1.5561,-7.94628 -0.57759,-2.83977 -4.06672,-2.32292 -6.25166,-2.41744 l -0.47622,-0.0311 0,0 z"
       id="path6254-5"
       inkscape:connector-curvature="0" />
    <path
       style="fill:#000000;fill-opacity:1;stroke:none;enable-background:new"
       d="m -143.52357,56.371453 c -0.13606,0.70088 -6.56168,11.97341 -8.1256,13.94859 -1.56393,1.97519 -2.41394,2.74493 -2.41394,2.74493 0,0 4.01182,-1.46546 10.26754,-12.23342 6.25573,-10.76795 0.272,-4.4601 0.272,-4.4601 z"
       id="path3420-7"
       inkscape:connector-curvature="0"
       sodipodi:nodetypes="cscsc" />
    <path
       style="fill:#000000;fill-opacity:1;stroke:none;enable-background:new"
       d="m -137.05864,55.280023 c 0.0149,0.7138 -3.88686,13.08856 -4.99869,15.34932 -1.11183,2.26077 -1.78024,3.19257 -1.78024,3.19257 0,0 3.61217,-2.27916 7.45437,-14.12485 3.84221,-11.8457 -0.67544,-4.41704 -0.67544,-4.41704 z"
       id="path3420-4-5"
       inkscape:connector-curvature="0"
       sodipodi:nodetypes="cscsc" />
  </g>
</svg>
