<?xml version="1.0" encoding="UTF-8" standalone="no"?>
<!-- Created with Inkscape (http://www.inkscape.org/) -->

<svg
   xmlns:dc="http://purl.org/dc/elements/1.1/"
   xmlns:cc="http://creativecommons.org/ns#"
   xmlns:rdf="http://www.w3.org/1999/02/22-rdf-syntax-ns#"
   xmlns:svg="http://www.w3.org/2000/svg"
   xmlns="http://www.w3.org/2000/svg"
   xmlns:sodipodi="http://sodipodi.sourceforge.net/DTD/sodipodi-0.dtd"
   xmlns:inkscape="http://www.inkscape.org/namespaces/inkscape"
   id="svg4776"
   version="1.1"
   inkscape:version="0.48.5 r10040"
   width="164"
   height="100.09334"
   sodipodi:docname="default.svg"
   style="enable-background:new">
  <metadata
     id="metadata4782">
    <rdf:RDF>
      <cc:Work
         rdf:about="">
        <dc:format>image/svg+xml</dc:format>
        <dc:type
           rdf:resource="http://purl.org/dc/dcmitype/StillImage" />
        <dc:title></dc:title>
      </cc:Work>
    </rdf:RDF>
  </metadata>
  <defs
     id="defs4780" />
  <sodipodi:namedview
     pagecolor="#f5f5dc"
     bordercolor="#666666"
     borderopacity="1"
     objecttolerance="10"
     gridtolerance="10"
     guidetolerance="10"
     inkscape:pageopacity="1"
     inkscape:pageshadow="2"
     inkscape:window-width="1649"
     inkscape:window-height="1052"
     id="namedview4778"
     showgrid="false"
     inkscape:zoom="5.6568544"
     inkscape:cx="73.230701"
     inkscape:cy="49.37756"
     inkscape:window-x="0"
     inkscape:window-y="26"
     inkscape:window-maximized="0"
     inkscape:current-layer="layer5"
     fit-margin-top="0"
     fit-margin-left="0"
     fit-margin-right="0"
     fit-margin-bottom="0" />
  <g
     inkscape:groupmode="layer"
     id="layer3"
     inkscape:label="下絵"
     transform="translate(-57.817236,-14.727385)" />
  <g
     inkscape:groupmode="layer"
     id="layer4"
     inkscape:label="白目"
     transform="translate(-57.817236,-14.727385)" />
  <g
     inkscape:groupmode="layer"
     id="layer6"
     inkscape:label="瞳"
     transform="translate(-57.817236,-14.727385)" />
  <g
     inkscape:groupmode="layer"
     id="layer5"
     inkscape:label="睫毛"
     transform="translate(-57.817236,-14.727385)">
    <path
       style="fill:#ffffff;fill-opacity:1;stroke:none"
       d="m 89.572142,32.408725 c -2.248119,10.116536 -1.68609,29.787584 1.12406,43.463645 2.81015,13.676061 10.116538,32.78508 10.116538,32.78508 0,0 44.21303,9.17982 57.70175,2.43546 13.48871,-6.74436 34.28382,-41.590212 34.28382,-41.590212 0,0 13.48872,-16.673557 5.43296,-24.916661 -8.05577,-8.243104 -18.1723,-21.919166 -35.78257,-21.54448 -17.61028,0.374689 -42.71428,1.12406 -54.32957,4.121553 -11.615285,2.997493 -18.546988,5.245615 -18.546988,5.245615 z"
       id="path5296"
       inkscape:connector-curvature="0" />
    <path
       style="fill:#76a34d;fill-opacity:1;stroke:none"
       d="m 125.45622,25.826639 c -11.06357,1.670307 -22.50333,6.756013 -28.576865,16.575541 -4.906868,9.497311 -3.426338,20.59772 -2.205319,30.795059 1.869183,12.098137 6.929544,24.572272 17.089014,31.998221 5.1337,3.68408 11.66314,3.45855 17.57576,4.75244 7.82055,1.25616 17.1292,2.14099 23.55047,-3.46557 5.70068,-5.18686 9.50968,-12.110389 12.91369,-18.929299 3.55648,-7.501985 5.01526,-15.813815 4.89679,-24.0772 0.35614,-8.869655 0.9383,-18.454387 -3.50348,-26.483878 -3.80278,-5.314528 -9.23522,-9.641456 -15.40668,-11.846541 -8.56274,-2.78064 -17.77763,-1.33542 -26.33338,0.681227 z"
       id="path5359"
       inkscape:connector-curvature="0" />
    <path
       style="fill:#395026;fill-opacity:1;stroke:none"
       d="m 133.97809,46.928578 c -24.9565,0.098 -30.41371,44.697926 -6.85056,51.425035 22.73912,7.611557 38.61205,-32.056272 20.61416,-47.331787 -3.69674,-3.412734 -7.47326,-4.053626 -13.7636,-4.093248 z"
       id="path6175"
       inkscape:connector-curvature="0"
       sodipodi:nodetypes="cccc" />
    <path
       style="fill:#ffffff;fill-opacity:1;stroke:none"
       d="m 110.11711,39.32446 c -11.444061,8.070727 -3.65358,30.289563 10.76964,28.489405 13.6635,-4.752374 8.81984,-27.260983 -4.40706,-29.042626 -1.95871,-0.355567 -4.02105,-0.706864 -6.36258,0.553221 z"
       id="path6202"
       inkscape:connector-curvature="0"
       sodipodi:nodetypes="cccc" />
    <path
       transform="matrix(0.28906488,0,0,0.28906488,15.073355,-26.658307)"
       sodipodi:type="arc"
       style="fill:#ffffff;fill-opacity:1;stroke:none"
       id="path6227"
       sodipodi:cx="467.44232"
       sodipodi:cy="414.91571"
       sodipodi:rx="25.205223"
       sodipodi:ry="25.434362"
       d="m 492.64754,414.91571 a 25.205223,25.434362 0 1 1 -50.41044,0 25.205223,25.434362 0 1 1 50.41044,0 z" />
    <path
       sodipodi:type="arc"
       style="fill:#061c05;fill-opacity:1;stroke:none"
       id="path6250"
       sodipodi:cx="411.99084"
       sodipodi:cy="355.56885"
       sodipodi:rx="34.370762"
       sodipodi:ry="34.370762"
       d="m 446.36161,355.56885 a 34.370762,34.370762 0 1 1 -68.74153,0 34.370762,34.370762 0 1 1 68.74153,0 z"
       transform="matrix(0.28906488,0,0,0.34687786,14.675937,-49.400579)" />
    <path
       style="fill:#000000;fill-opacity:1;stroke:none"
       d="m 57.817236,28.82428 c 10.597738,1.589663 45.570274,-3.709209 68.620354,-8.743132 23.05009,-5.033926 61.46689,-5.563814 64.91115,-5.298871 3.44427,0.264945 5.29887,0.79483 5.29887,0.79483 0,0 -2.91438,-0.264943 -8.47819,2.384493 -5.56381,2.649433 -6.0937,6.358641 -6.0937,6.358641 0,0 4.55066,1.325444 8.55046,1.601674 4.01028,0.276956 14.91508,-0.241962 14.91508,-0.241962 0,0 -1.14936,1.340674 -4.43127,3.572015 -3.80203,2.584972 -6.84687,3.016578 -6.84687,3.016578 0,0 0.79483,0.79483 11.39257,6.623586 10.59773,5.828751 16.16155,6.888526 16.16155,6.888526 0,0 -11.39257,5.563811 -16.95638,10.597737 -5.56381,5.033926 -15.10178,18.016157 -15.10178,18.016157 0,0 9.27302,-15.896609 2.64944,-27.554121 C 185.72186,35.071932 162.99979,25.909904 139.41982,26.439789 115.83985,26.969677 95.969095,32.533491 84.046641,40.746738 72.124182,48.959979 64.17588,60.087603 64.17588,60.087603 c 0,0 1.059773,-7.418416 3.444263,-11.39257 2.384494,-3.97415 5.563814,-8.213241 5.563814,-8.213241 0,0 -4.768983,0.331182 -7.683362,2.318254 -2.635948,1.79723 -7.153471,5.100157 -7.153471,5.100157 0,0 2.185784,-6.226163 4.835217,-8.875598 2.649436,-2.649433 5.232635,-5.630048 5.232635,-5.630048 0,0 -0.06624,0.463649 -4.83522,-1.126011 -4.76898,-1.589661 -5.76252,-3.444266 -5.76252,-3.444266 z"
       id="path4786"
       inkscape:connector-curvature="0"
       sodipodi:nodetypes="csscscscscscscssscscscscsc" />
    <path
       style="fill:#000000;fill-opacity:1;stroke:none"
       d="m 100.77918,108.64634 c 12.13499,1.69231 24.27204,3.70867 36.53626,4.04432 8.52925,-0.33154 17.02054,-1.32362 25.52758,-1.76135 -3.8467,2.89852 -10.99689,3.09734 -15.32153,3.66904 -8.12067,0.33931 -14.44496,0.37318 -22.54457,-0.49503 -8.17443,-1.29104 -16.15741,-3.53909 -24.19774,-5.45698 z"
       id="path6222"
       inkscape:connector-curvature="0"
       sodipodi:nodetypes="cccccc" />
    <path
       style="fill:#000000;fill-opacity:1;stroke:none"
       d="M 64.237171,25.301764 C 87.069522,24.86536 92.688513,19.644328 92.688513,19.644328 z"
       id="path6252"
       inkscape:connector-curvature="0" />
    <path
       style="fill:none;stroke:none"
       d="m 107.4768,78.477177 c 15.68225,0.998823 31.45827,-0.491977 47.09534,1.382389 3.8478,1.222343 6.54345,5.072895 6.34612,9.107264 -0.13025,5.787076 -3.47906,11.23499 -8.18689,14.47909 -5.2664,4.81633 -12.83741,5.46314 -19.6294,4.86004 -4.19313,-0.44192 -8.42363,-0.71555 -12.5717,-1.48137 -8.79555,-2.07736 -15.34651,-9.651749 -18.22525,-17.952623 -0.83221,-2.561042 -1.59943,-5.23876 -1.5561,-7.946278 0.57759,-2.839773 4.06672,-2.322919 6.25166,-2.417441 l 0.47622,-0.03109 0,0 z"
       id="path6254"
       inkscape:connector-curvature="0" />
  </g>
</svg>
